<?xml version="1.0" encoding="UTF-8"?>
<svg xmlns="http://www.w3.org/2000/svg" width="1100" height="380" viewBox="0 0 1100 380">
<rect x="25" y="16" width="260" height="42" rx="0" fill="#24557f" stroke="#fff" stroke-width="1"/>
<text x="37" y="42" font-family="Arial, sans-serif" font-size="11px" font-weight="700" fill="#fff" text-anchor="start">Giai đoạn / Công việc</text>
<rect x="285" y="16" width="210" height="42" rx="0" fill="#24557f" stroke="#fff" stroke-width="1"/>
<text x="297" y="42" font-family="Arial, sans-serif" font-size="11px" font-weight="700" fill="#fff" text-anchor="start">Đơn vị chủ trì</text>
<rect x="495" y="16" width="210" height="42" rx="0" fill="#24557f" stroke="#fff" stroke-width="1"/>
<text x="507" y="42" font-family="Arial, sans-serif" font-size="11px" font-weight="700" fill="#fff" text-anchor="start">Đơn vị phối hợp</text>
<rect x="705" y="16" width="160" height="42" rx="0" fill="#24557f" stroke="#fff" stroke-width="1"/>
<text x="717" y="42" font-family="Arial, sans-serif" font-size="11px" font-weight="700" fill="#fff" text-anchor="start">SLA tiến độ</text>
<rect x="865" y="16" width="210" height="42" rx="0" fill="#24557f" stroke="#fff" stroke-width="1"/>
<text x="877" y="42" font-family="Arial, sans-serif" font-size="11px" font-weight="700" fill="#fff" text-anchor="start">RACI Matrix</text>
<rect x="25" y="58" width="260" height="60" rx="0" fill="#f8f9fa" stroke="#b9c2c8" stroke-width="0.7"/>
<text x="37" y="93" font-family="Arial, sans-serif" font-size="10px" font-weight="400" fill="#333333" text-anchor="start">1. Chốt phạm vi và KPI register</text>
<rect x="285" y="58" width="210" height="60" rx="0" fill="#f8f9fa" stroke="#b9c2c8" stroke-width="0.7"/>
<text x="297" y="93" font-family="Arial, sans-serif" font-size="10px" font-weight="400" fill="#333333" text-anchor="start">Chủ quy trình / Vận hành</text>
<rect x="495" y="58" width="210" height="60" rx="0" fill="#f8f9fa" stroke="#b9c2c8" stroke-width="0.7"/>
<text x="507" y="93" font-family="Arial, sans-serif" font-size="10px" font-weight="400" fill="#333333" text-anchor="start">Quản trị dữ liệu &amp; CNTT</text>
<rect x="705" y="58" width="160" height="60" rx="0" fill="#f8f9fa" stroke="#b9c2c8" stroke-width="0.7"/>
<text x="717" y="93" font-family="Arial, sans-serif" font-size="10px" font-weight="400" fill="#333333" text-anchor="start">Tuần 1</text>
<rect x="865" y="58" width="210" height="60" rx="0" fill="#f8f9fa" stroke="#b9c2c8" stroke-width="0.7"/>
<text x="877" y="93" font-family="Arial, sans-serif" font-size="10px" font-weight="400" fill="#333333" text-anchor="start">Chủ quy trình: A/R | CNTT: C</text>
<rect x="25" y="118" width="260" height="60" rx="0" fill="#ffffff" stroke="#b9c2c8" stroke-width="0.7"/>
<text x="37" y="153" font-family="Arial, sans-serif" font-size="10px" font-weight="400" fill="#333333" text-anchor="start">2. Phê duyệt KPI, ngưỡng cảnh báo</text>
<rect x="285" y="118" width="210" height="60" rx="0" fill="#ffffff" stroke="#b9c2c8" stroke-width="0.7"/>
<text x="297" y="153" font-family="Arial, sans-serif" font-size="10px" font-weight="400" fill="#333333" text-anchor="start">Lãnh đạo / Chủ KPI</text>
<rect x="495" y="118" width="210" height="60" rx="0" fill="#ffffff" stroke="#b9c2c8" stroke-width="0.7"/>
<text x="507" y="153" font-family="Arial, sans-serif" font-size="10px" font-weight="400" fill="#333333" text-anchor="start">Chủ quy trình / Vận hành</text>
<rect x="705" y="118" width="160" height="60" rx="0" fill="#ffffff" stroke="#b9c2c8" stroke-width="0.7"/>
<text x="717" y="153" font-family="Arial, sans-serif" font-size="10px" font-weight="400" fill="#333333" text-anchor="start">Tuần 1</text>
<rect x="865" y="118" width="210" height="60" rx="0" fill="#ffffff" stroke="#b9c2c8" stroke-width="0.7"/>
<text x="877" y="153" font-family="Arial, sans-serif" font-size="10px" font-weight="400" fill="#333333" text-anchor="start">Lãnh đạo: A | Chủ quy trình: R</text>
<rect x="25" y="178" width="260" height="60" rx="0" fill="#f8f9fa" stroke="#b9c2c8" stroke-width="0.7"/>
<text x="37" y="213" font-family="Arial, sans-serif" font-size="10px" font-weight="400" fill="#333333" text-anchor="start">3. Kết nối event log và SSOT</text>
<rect x="285" y="178" width="210" height="60" rx="0" fill="#f8f9fa" stroke="#b9c2c8" stroke-width="0.7"/>
<text x="297" y="213" font-family="Arial, sans-serif" font-size="10px" font-weight="400" fill="#333333" text-anchor="start">Quản trị dữ liệu &amp; CNTT</text>
<rect x="495" y="178" width="210" height="60" rx="0" fill="#f8f9fa" stroke="#b9c2c8" stroke-width="0.7"/>
<text x="507" y="213" font-family="Arial, sans-serif" font-size="10px" font-weight="400" fill="#333333" text-anchor="start">Điều phối hiệu suất &amp; BI</text>
<rect x="705" y="178" width="160" height="60" rx="0" fill="#f8f9fa" stroke="#b9c2c8" stroke-width="0.7"/>
<text x="717" y="213" font-family="Arial, sans-serif" font-size="10px" font-weight="400" fill="#333333" text-anchor="start">Tuần 2 - 3</text>
<rect x="865" y="178" width="210" height="60" rx="0" fill="#f8f9fa" stroke="#b9c2c8" stroke-width="0.7"/>
<text x="877" y="213" font-family="Arial, sans-serif" font-size="10px" font-weight="400" fill="#333333" text-anchor="start">CNTT: A/R | BI: C</text>
<rect x="25" y="238" width="260" height="60" rx="0" fill="#ffffff" stroke="#b9c2c8" stroke-width="0.7"/>
<text x="37" y="273" font-family="Arial, sans-serif" font-size="10px" font-weight="400" fill="#333333" text-anchor="start">4. Vận hành quality gate dữ liệu</text>
<rect x="285" y="238" width="210" height="60" rx="0" fill="#ffffff" stroke="#b9c2c8" stroke-width="0.7"/>
<text x="297" y="273" font-family="Arial, sans-serif" font-size="10px" font-weight="400" fill="#333333" text-anchor="start">Điều phối hiệu suất &amp; BI</text>
<rect x="495" y="238" width="210" height="60" rx="0" fill="#ffffff" stroke="#b9c2c8" stroke-width="0.7"/>
<text x="507" y="273" font-family="Arial, sans-serif" font-size="10px" font-weight="400" fill="#333333" text-anchor="start">Quản trị dữ liệu &amp; CNTT</text>
<rect x="705" y="238" width="160" height="60" rx="0" fill="#ffffff" stroke="#b9c2c8" stroke-width="0.7"/>
<text x="717" y="273" font-family="Arial, sans-serif" font-size="10px" font-weight="400" fill="#333333" text-anchor="start">Tuần 2 - 3</text>
<rect x="865" y="238" width="210" height="60" rx="0" fill="#ffffff" stroke="#b9c2c8" stroke-width="0.7"/>
<text x="877" y="273" font-family="Arial, sans-serif" font-size="10px" font-weight="400" fill="#333333" text-anchor="start">BI: A/R | CNTT: R</text>
<rect x="25" y="298" width="260" height="60" rx="0" fill="#f8f9fa" stroke="#b9c2c8" stroke-width="0.7"/>
<text x="37" y="333" font-family="Arial, sans-serif" font-size="10px" font-weight="400" fill="#333333" text-anchor="start">5. Chuẩn hóa và đối chiếu dữ liệu</text>
<rect x="285" y="298" width="210" height="60" rx="0" fill="#f8f9fa" stroke="#b9c2c8" stroke-width="0.7"/>
<text x="297" y="333" font-family="Arial, sans-serif" font-size="10px" font-weight="400" fill="#333333" text-anchor="start">Điều phối hiệu suất &amp; BI</text>
<rect x="495" y="298" width="210" height="60" rx="0" fill="#f8f9fa" stroke="#b9c2c8" stroke-width="0.7"/>
<text x="507" y="333" font-family="Arial, sans-serif" font-size="10px" font-weight="400" fill="#333333" text-anchor="start">Đơn vị vận hành</text>
<rect x="705" y="298" width="160" height="60" rx="0" fill="#f8f9fa" stroke="#b9c2c8" stroke-width="0.7"/>
<text x="717" y="333" font-family="Arial, sans-serif" font-size="10px" font-weight="400" fill="#333333" text-anchor="start">Tuần 4</text>
<rect x="865" y="298" width="210" height="60" rx="0" fill="#f8f9fa" stroke="#b9c2c8" stroke-width="0.7"/>
<text x="877" y="333" font-family="Arial, sans-serif" font-size="10px" font-weight="400" fill="#333333" text-anchor="start">BI: A/R | ĐVVL: C</text>
<rect x="25" y="358" width="260" height="60" rx="0" fill="#ffffff" stroke="#b9c2c8" stroke-width="0.7"/>
<text x="37" y="393" font-family="Arial, sans-serif" font-size="10px" font-weight="400" fill="#333333" text-anchor="start">6. Tính KPI, phát hành dashboard</text>
<rect x="285" y="358" width="210" height="60" rx="0" fill="#ffffff" stroke="#b9c2c8" stroke-width="0.7"/>
<text x="297" y="393" font-family="Arial, sans-serif" font-size="10px" font-weight="400" fill="#333333" text-anchor="start">Điều phối hiệu suất &amp; BI</text>
<rect x="495" y="358" width="210" height="60" rx="0" fill="#ffffff" stroke="#b9c2c8" stroke-width="0.7"/>
<text x="507" y="393" font-family="Arial, sans-serif" font-size="10px" font-weight="400" fill="#333333" text-anchor="start">Chủ quy trình / Vận hành</text>
<rect x="705" y="358" width="160" height="60" rx="0" fill="#ffffff" stroke="#b9c2c8" stroke-width="0.7"/>
<text x="717" y="393" font-family="Arial, sans-serif" font-size="10px" font-weight="400" fill="#333333" text-anchor="start">Tuần 5</text>
<rect x="865" y="358" width="210" height="60" rx="0" fill="#ffffff" stroke="#b9c2c8" stroke-width="0.7"/>
<text x="877" y="393" font-family="Arial, sans-serif" font-size="10px" font-weight="400" fill="#333333" text-anchor="start">BI: A/R | Chủ quy trình: I</text>
<rect x="25" y="418" width="260" height="60" rx="0" fill="#f8f9fa" stroke="#b9c2c8" stroke-width="0.7"/>
<text x="37" y="453" font-family="Arial, sans-serif" font-size="10px" font-weight="400" fill="#333333" text-anchor="start">7. Phân tích chênh lệch và RCA</text>
<rect x="285" y="418" width="210" height="60" rx="0" fill="#f8f9fa" stroke="#b9c2c8" stroke-width="0.7"/>
<text x="297" y="453" font-family="Arial, sans-serif" font-size="10px" font-weight="400" fill="#333333" text-anchor="start">Chủ quy trình / Vận hành</text>
<rect x="495" y="418" width="210" height="60" rx="0" fill="#f8f9fa" stroke="#b9c2c8" stroke-width="0.7"/>
<text x="507" y="453" font-family="Arial, sans-serif" font-size="10px" font-weight="400" fill="#333333" text-anchor="start">Điều phối hiệu suất &amp; BI</text>
<rect x="705" y="418" width="160" height="60" rx="0" fill="#f8f9fa" stroke="#b9c2c8" stroke-width="0.7"/>
<text x="717" y="453" font-family="Arial, sans-serif" font-size="10px" font-weight="400" fill="#333333" text-anchor="start">Tuần 6</text>
<rect x="865" y="418" width="210" height="60" rx="0" fill="#f8f9fa" stroke="#b9c2c8" stroke-width="0.7"/>
<text x="877" y="453" font-family="Arial, sans-serif" font-size="10px" font-weight="400" fill="#333333" text-anchor="start">Chủ quy trình: A/R | BI: C</text>
<rect x="25" y="478" width="260" height="60" rx="0" fill="#ffffff" stroke="#b9c2c8" stroke-width="0.7"/>
<text x="37" y="513" font-family="Arial, sans-serif" font-size="10px" font-weight="400" fill="#333333" text-anchor="start">8. Cải tiến, hậu kiểm, đóng kỳ</text>
<rect x="285" y="478" width="210" height="60" rx="0" fill="#ffffff" stroke="#b9c2c8" stroke-width="0.7"/>
<text x="297" y="513" font-family="Arial, sans-serif" font-size="10px" font-weight="400" fill="#333333" text-anchor="start">Đơn vị vận hành</text>
<rect x="495" y="478" width="210" height="60" rx="0" fill="#ffffff" stroke="#b9c2c8" stroke-width="0.7"/>
<text x="507" y="513" font-family="Arial, sans-serif" font-size="10px" font-weight="400" fill="#333333" text-anchor="start">Chủ quy trình, Lãnh đạo</text>
<rect x="705" y="478" width="160" height="60" rx="0" fill="#ffffff" stroke="#b9c2c8" stroke-width="0.7"/>
<text x="717" y="513" font-family="Arial, sans-serif" font-size="10px" font-weight="400" fill="#333333" text-anchor="start">Tuần 7 - 8</text>
<rect x="865" y="478" width="210" height="60" rx="0" fill="#ffffff" stroke="#b9c2c8" stroke-width="0.7"/>
<text x="877" y="513" font-family="Arial, sans-serif" font-size="10px" font-weight="400" fill="#333333" text-anchor="start">ĐVVL: R | Chủ quy trình: A</text>
</svg>
